Input #0, lavfi, from 'rgbtestsrc=duration=60:size=1920x1080:rate=30':
  Duration: N/A, start: 0.000000, bitrate: N/A
  Stream #0:0: Video: rawvideo (RGBA / 0x41424752), rgba, 1920x1080 [SAR 1:1 DAR 16:9], 30 tbr, 30 tbn, 30 tbc
Stream mapping:
  Stream #0:0 -> #0:0 (rawvideo (native) -> h264 (h264_nvenc))
Press [q] to stop, [?] for help
Output #0, mp4, to './test_results/temp_tests_gpu/test_test_50_22/output.mp4':
  Metadata:
    encoder         : Lavf58.76.100
  Stream #0:0: Video: h264 (Main) (avc1 / 0x31637661), rgb0(pc, gbr/unknown/unknown, progressive), 1280x720 [SAR 1:1 DAR 16:9], q=2-31, 30 fps, 15360 tbn
    Metadata:
      encoder         : Lavc58.134.100 h264_nvenc
    Side data:
      cpb: bitrate max/min/avg: 3000000/0/0 buffer size: 4000000 vbv_delay: N/A
frame=    1 fps=0.0 q=0.0 size=       0kB time=00:00:00.00 bitrate=N/A speed=N/A    frame=    2 fps=0.0 q=0.0 size=       0kB time=00:00:00.00 bitrate=N/A speed=   0x    frame=   19 fps= 16 q=23.0 size=       0kB time=00:00:00.53 bitrate=   0.7kbits/s speed=0.45x    frame=   35 fps= 21 q=23.0 size=       0kB time=00:00:01.06 bitrate=   0.4kbits/s speed=0.632x    frame=   50 fps= 23 q=23.0 size=       0kB time=00:00:01.56 bitrate=   0.2kbits/s speed=0.713x    frame=   64 fps= 24 q=23.0 size=       0kB time=00:00:02.03 bitrate=   0.2kbits/s speed=0.753x    frame=   80 fps= 25 q=23.0 size=       0kB time=00:00:02.56 bitrate=   0.1kbits/s speed=0.801x    frame=   94 fps= 25 q=23.0 size=       0kB time=00:00:03.03 bitrate=   0.1kbits/s speed=0.807x    frame=  106 fps= 25 q=23.0 size=       0kB time=00:00:03.43 bitrate=   0.1kbits/s speed=0.806x    frame=  120 fps= 25 q=23.0 size=       0kB time=00:00:03.90 bitrate=   0.1kbits/s speed=0.817x    frame=  134 fps= 25 q=23.0 size=       0kB time=00:00:04.36 bitrate=   0.1kbits/s speed=0.826x    frame=  147 fps= 25 q=23.0 size=       0kB time=00:00:04.80 bitrate=   0.1kbits/s speed=0.828x    frame=  159 fps= 25 q=23.0 size=       0kB time=00:00:05.20 bitrate=   0.1kbits/s speed=0.825x    frame=  171 fps= 25 q=23.0 size=       0kB time=00:00:05.60 bitrate=   0.1kbits/s speed=0.822x    frame=  184 fps= 25 q=23.0 size=       0kB time=00:00:06.03 bitrate=   0.1kbits/s speed=0.82x    frame=  197 fps= 25 q=23.0 size=       0kB time=00:00:06.46 bitrate=   0.1kbits/s speed=0.821x    frame=  210 fps= 25 q=23.0 size=       0kB time=00:00:06.90 bitrate=   0.1kbits/s speed=0.822x    frame=  224 fps= 25 q=23.0 size=       0kB time=00:00:07.36 bitrate=   0.1kbits/s speed=0.826x    frame=  240 fps= 25 q=23.0 size=       0kB time=00:00:07.90 bitrate=   0.0kbits/s speed=0.835x    frame=  255 fps= 26 q=23.0 size=       0kB time=00:00:08.40 bitrate=   0.0kbits/s speed=0.842x    frame=  271 fps= 26 q=23.0 size=       0kB time=00:00:08.93 bitrate=   0.0kbits/s speed=0.85x    frame=  288 fps= 26 q=23.0 size=       0kB time=00:00:09.50 bitrate=   0.0kbits/s speed=0.861x    frame=  303 fps= 26 q=19.0 size=       0kB time=00:00:10.00 bitrate=   0.0kbits/s speed=0.867x    frame=  319 fps= 26 q=23.0 size=       0kB time=00:00:10.53 bitrate=   0.0kbits/s speed=0.874x    frame=  335 fps= 27 q=23.0 size=       0kB time=00:00:11.06 bitrate=   0.0kbits/s speed=0.881x    frame=  351 fps= 27 q=23.0 size=       0kB time=00:00:11.60 bitrate=   0.0kbits/s speed=0.887x    frame=  366 fps= 27 q=23.0 size=       0kB time=00:00:12.10 bitrate=   0.0kbits/s speed=0.89x    frame=  382 fps= 27 q=23.0 size=       0kB time=00:00:12.63 bitrate=   0.0kbits/s speed=0.896x    frame=  398 fps= 27 q=23.0 size=       0kB time=00:00:13.16 bitrate=   0.0kbits/s speed= 0.9x    frame=  413 fps= 27 q=23.0 size=       0kB time=00:00:13.66 bitrate=   0.0kbits/s speed=0.902x    frame=  427 fps= 27 q=23.0 size=       0kB time=00:00:14.13 bitrate=   0.0kbits/s speed=0.902x    frame=  439 fps= 27 q=23.0 size=       0kB time=00:00:14.53 bitrate=   0.0kbits/s speed=0.898x    frame=  452 fps= 27 q=23.0 size=       0kB time=00:00:14.96 bitrate=   0.0kbits/s speed=0.896x    frame=  466 fps= 27 q=23.0 size=       0kB time=00:00:15.43 bitrate=   0.0kbits/s speed=0.897x    frame=  480 fps= 27 q=23.0 size=       0kB time=00:00:15.90 bitrate=   0.0kbits/s speed=0.898x    frame=  495 fps= 27 q=23.0 size=       0kB time=00:00:16.40 bitrate=   0.0kbits/s speed=0.899x    frame=  509 fps= 27 q=23.0 size=       0kB time=00:00:16.86 bitrate=   0.0kbits/s speed=0.899x    frame=  524 fps= 27 q=23.0 size=       0kB time=00:00:17.36 bitrate=   0.0kbits/s speed=0.902x    frame=  539 fps= 27 q=23.0 size=       0kB time=00:00:17.86 bitrate=   0.0kbits/s speed=0.904x    frame=  555 fps= 27 q=23.0 size=       0kB time=00:00:18.40 bitrate=   0.0kbits/s speed=0.908x    frame=  571 fps= 27 q=23.0 size=       0kB time=00:00:18.93 bitrate=   0.0kbits/s speed=0.911x    frame=  587 fps= 28 q=23.0 size=       0kB time=00:00:19.46 bitrate=   0.0kbits/s speed=0.914x    frame=  605 fps= 28 q=23.0 size=       0kB time=00:00:20.06 bitrate=   0.0kbits/s speed=0.921x    frame=  624 fps= 28 q=23.0 size=       0kB time=00:00:20.70 bitrate=   0.0kbits/s speed=0.928x    frame=  644 fps= 28 q=23.0 size=       0kB time=00:00:21.36 bitrate=   0.0kbits/s speed=0.936x    frame=  664 fps= 28 q=23.0 size=       0kB time=00:00:22.03 bitrate=   0.0kbits/s speed=0.943x    frame=  684 fps= 29 q=23.0 size=       0kB time=00:00:22.70 bitrate=   0.0kbits/s speed=0.951x    frame=  704 fps= 29 q=23.0 size=       0kB time=00:00:23.36 bitrate=   0.0kbits/s speed=0.958x    frame=  724 fps= 29 q=23.0 size=       0kB time=00:00:24.03 bitrate=   0.0kbits/s speed=0.964x    frame=  744 fps= 29 q=23.0 size=       0kB time=00:00:24.70 bitrate=   0.0kbits/s speed=0.971x    frame=  763 fps= 29 q=23.0 size=       0kB time=00:00:25.33 bitrate=   0.0kbits/s speed=0.976x    frame=  781 fps= 30 q=23.0 size=       0kB time=00:00:25.93 bitrate=   0.0kbits/s speed=0.98x    frame=  800 fps= 30 q=23.0 size=       0kB time=00:00:26.56 bitrate=   0.0kbits/s speed=0.985x    frame=  819 fps= 30 q=23.0 size=       0kB time=00:00:27.20 bitrate=   0.0kbits/s speed=0.99x    frame=  839 fps= 30 q=23.0 size=       0kB time=00:00:27.86 bitrate=   0.0kbits/s speed=0.996x    frame=  859 fps= 30 q=23.0 size=       0kB time=00:00:28.53 bitrate=   0.0kbits/s speed=   1x    frame=  879 fps= 30 q=23.0 size=       0kB time=00:00:29.20 bitrate=   0.0kbits/s speed=1.01x    frame=  899 fps= 30 q=23.0 size=       0kB time=00:00:29.86 bitrate=   0.0kbits/s speed=1.01x    frame=  918 fps= 31 q=23.0 size=       0kB time=00:00:30.50 bitrate=   0.0kbits/s speed=1.01x    frame=  937 fps= 31 q=23.0 size=       0kB time=00:00:31.13 bitrate=   0.0kbits/s speed=1.02x    frame=  956 fps= 31 q=23.0 size=       0kB time=00:00:31.76 bitrate=   0.0kbits/s speed=1.02x    frame=  975 fps= 31 q=23.0 size=       0kB time=00:00:32.40 bitrate=   0.0kbits/s speed=1.03x    frame=  994 fps= 31 q=23.0 size=       0kB time=00:00:33.03 bitrate=   0.0kbits/s speed=1.03x    frame= 1013 fps= 31 q=23.0 size=       0kB time=00:00:33.66 bitrate=   0.0kbits/s speed=1.03x    frame= 1029 fps= 31 q=23.0 size=       0kB time=00:00:34.20 bitrate=   0.0kbits/s speed=1.03x    frame= 1048 fps= 31 q=23.0 size=       0kB time=00:00:34.83 bitrate=   0.0kbits/s speed=1.04x    frame= 1067 fps= 31 q=23.0 size=       0kB time=00:00:35.46 bitrate=   0.0kbits/s speed=1.04x    frame= 1087 fps= 31 q=23.0 size=       0kB time=00:00:36.13 bitrate=   0.0kbits/s speed=1.04x    frame= 1107 fps= 31 q=23.0 size=       0kB time=00:00:36.80 bitrate=   0.0kbits/s speed=1.05x    frame= 1126 fps= 32 q=23.0 size=       0kB time=00:00:37.43 bitrate=   0.0kbits/s speed=1.05x    frame= 1145 fps= 32 q=23.0 size=       0kB time=00:00:38.06 bitrate=   0.0kbits/s speed=1.05x    frame= 1164 fps= 32 q=23.0 size=       0kB time=00:00:38.70 bitrate=   0.0kbits/s speed=1.06x    frame= 1184 fps= 32 q=23.0 size=       0kB time=00:00:39.36 bitrate=   0.0kbits/s speed=1.06x    frame= 1204 fps= 32 q=23.0 size=       0kB time=00:00:40.03 bitrate=   0.0kbits/s speed=1.06x    frame= 1224 fps= 32 q=23.0 size=       0kB time=00:00:40.70 bitrate=   0.0kbits/s speed=1.06x    frame= 1244 fps= 32 q=23.0 size=       0kB time=00:00:41.36 bitrate=   0.0kbits/s speed=1.07x    frame= 1263 fps= 32 q=19.0 size=       0kB time=00:00:42.00 bitrate=   0.0kbits/s speed=1.07x    frame= 1282 fps= 32 q=23.0 size=       0kB time=00:00:42.63 bitrate=   0.0kbits/s speed=1.07x    frame= 1301 fps= 32 q=23.0 size=       0kB time=00:00:43.26 bitrate=   0.0kbits/s speed=1.07x    frame= 1320 fps= 32 q=23.0 size=       0kB time=00:00:43.90 bitrate=   0.0kbits/s speed=1.08x    frame= 1338 fps= 32 q=23.0 size=       0kB time=00:00:44.50 bitrate=   0.0kbits/s speed=1.08x    frame= 1355 fps= 32 q=23.0 size=       0kB time=00:00:45.06 bitrate=   0.0kbits/s speed=1.08x    frame= 1373 fps= 32 q=23.0 size=       0kB time=00:00:45.66 bitrate=   0.0kbits/s speed=1.08x    frame= 1391 fps= 32 q=23.0 size=       0kB time=00:00:46.26 bitrate=   0.0kbits/s speed=1.08x    frame= 1409 fps= 33 q=23.0 size=       0kB time=00:00:46.86 bitrate=   0.0kbits/s speed=1.08x    frame= 1427 fps= 33 q=23.0 size=       0kB time=00:00:47.46 bitrate=   0.0kbits/s speed=1.08x    frame= 1446 fps= 33 q=23.0 size=       0kB time=00:00:48.10 bitrate=   0.0kbits/s speed=1.08x    frame= 1464 fps= 33 q=23.0 size=       0kB time=00:00:48.70 bitrate=   0.0kbits/s speed=1.09x    frame= 1482 fps= 33 q=23.0 size=       0kB time=00:00:49.30 bitrate=   0.0kbits/s speed=1.09x    frame= 1500 fps= 33 q=23.0 size=       0kB time=00:00:49.90 bitrate=   0.0kbits/s speed=1.09x    frame= 1518 fps= 33 q=23.0 size=       0kB time=00:00:50.50 bitrate=   0.0kbits/s speed=1.09x    frame= 1536 fps= 33 q=23.0 size=       0kB time=00:00:51.10 bitrate=   0.0kbits/s speed=1.09x    frame= 1554 fps= 33 q=23.0 size=       0kB time=00:00:51.70 bitrate=   0.0kbits/s speed=1.09x    frame= 1572 fps= 33 q=23.0 size=       0kB time=00:00:52.30 bitrate=   0.0kbits/s speed=1.09x    frame= 1590 fps= 33 q=23.0 size=       0kB time=00:00:52.90 bitrate=   0.0kbits/s speed=1.09x    frame= 1608 fps= 33 q=23.0 size=       0kB time=00:00:53.50 bitrate=   0.0kbits/s speed=1.09x    frame= 1626 fps= 33 q=23.0 size=       0kB time=00:00:54.10 bitrate=   0.0kbits/s speed=1.09x    frame= 1644 fps= 33 q=23.0 size=       0kB time=00:00:54.70 bitrate=   0.0kbits/s speed= 1.1x    frame= 1662 fps= 33 q=23.0 size=       0kB time=00:00:55.30 bitrate=   0.0kbits/s speed= 1.1x    frame= 1681 fps= 33 q=23.0 size=       0kB time=00:00:55.93 bitrate=   0.0kbits/s speed= 1.1x    frame= 1700 fps= 33 q=23.0 size=       0kB time=00:00:56.56 bitrate=   0.0kbits/s speed= 1.1x    frame= 1718 fps= 33 q=23.0 size=       0kB time=00:00:57.16 bitrate=   0.0kbits/s speed= 1.1x    frame= 1736 fps= 33 q=23.0 size=       0kB time=00:00:57.76 bitrate=   0.0kbits/s speed= 1.1x    frame= 1755 fps= 33 q=23.0 size=       0kB time=00:00:58.40 bitrate=   0.0kbits/s speed= 1.1x    frame= 1774 fps= 33 q=23.0 size=       0kB time=00:00:59.03 bitrate=   0.0kbits/s speed= 1.1x    frame= 1793 fps= 33 q=23.0 size=       0kB time=00:00:59.66 bitrate=   0.0kbits/s speed= 1.1x    [mp4 @ 0x5afc17aac400] Starting second pass: moving the moov atom to the beginning of the file
frame= 1800 fps= 33 q=23.0 Lsize=     159kB time=00:00:59.96 bitrate=  21.7kbits/s speed= 1.1x    
video:151kB audio:0kB subtitle:0kB other streams:0kB global headers:0kB muxing overhead: 5.300566%
